<?xml version="1.0" encoding="utf-8"?>
<!-- Generator: Adobe Illustrator 23.1.0, SVG Export Plug-In . SVG Version: 6.00 Build 0)  -->
<svg version="1.1" id="Calque_1" xmlns="http://www.w3.org/2000/svg" xmlns:xlink="http://www.w3.org/1999/xlink" x="0px" y="0px"
	 viewBox="0 0 179 250" style="enable-background:new 0 0 179 250;" xml:space="preserve">
<style type="text/css">
	.st0{fill:none;}
	.st1{fill:#8871B1;}
	.st2{fill:none;stroke:#8871B1;stroke-width:0.5;stroke-miterlimit:10;}
	.st3{fill:#D6C1DF;}
	.st4{fill:none;stroke:#9D9D9C;stroke-width:0.5;stroke-miterlimit:10;}
	.st5{fill:#DADADA;}
	.st6{fill:#DFDEDE;}
	.st7{fill:none;stroke:#DADADA;stroke-width:0.5;stroke-miterlimit:10;}
	.st8{fill:none;stroke:#DFDEDE;stroke-width:0.5;stroke-miterlimit:10;}
	.st9{fill:#999593;}
	.st10{fill:#9D9D9C;}
</style>
<g>
	<rect x="76.06" y="7.16" class="st0" width="26.83" height="5.92"/>
	<path class="st1" d="M79.5,7.04c0.58,0,1.07,0.16,1.47,0.49s0.63,0.76,0.69,1.31h-1.06c-0.04-0.25-0.16-0.46-0.37-0.62
		s-0.45-0.25-0.72-0.25c-0.43,0-0.76,0.15-1,0.46c-0.24,0.31-0.36,0.73-0.36,1.25c0,0.51,0.12,0.92,0.36,1.22
		c0.24,0.3,0.57,0.45,1,0.45c0.32,0,0.57-0.1,0.77-0.29c0.2-0.19,0.32-0.47,0.36-0.83h1.06c-0.06,0.63-0.28,1.13-0.68,1.5
		c-0.4,0.36-0.9,0.55-1.52,0.55c-0.73,0-1.33-0.24-1.78-0.72s-0.68-1.11-0.68-1.87c0-0.77,0.22-1.41,0.67-1.9
		C78.16,7.28,78.75,7.04,79.5,7.04z"/>
	<path class="st1" d="M83.54,7.16v4.07h2.44v0.92h-3.54v-5H83.54z"/>
	<path class="st1" d="M87.69,7.16v5h-1.1v-5H87.69z"/>
	<path class="st1" d="M92.4,7.16v0.92h-2.64v1.07h2.42v0.85h-2.42v1.23h2.69v0.92h-3.79v-5H92.4z"/>
	<path class="st1" d="M94.29,7.16l2.09,3.35h0.01V7.16h1.03v5h-1.1l-2.08-3.35h-0.01v3.35h-1.03v-5H94.29z"/>
	<path class="st1" d="M102.08,7.16v0.92h-1.5v4.07h-1.1V8.08h-1.5V7.16H102.08z"/>
</g>
<g>
	<polyline class="st2" points="63,244.19 5.81,244.19 5.81,9.67 63.14,9.67 	"/>
	<polyline class="st2" points="116.64,9.67 173.81,9.67 173.81,244.19 117,244.19 	"/>
</g>
<polygon class="st2" points="103.5,14.88 67.84,14.88 76.12,4.68 111.78,4.68 "/>
<polygon class="st3" points="61.69,15.04 61,15.04 69.58,4.52 70.23,4.52 "/>
<polygon class="st1" points="59.22,15.04 58.52,15.04 67.11,4.52 67.76,4.52 "/>
<polygon class="st3" points="110.08,15.08 109.4,15.08 117.97,4.56 118.62,4.56 "/>
<polygon class="st1" points="112.71,15.08 112.03,15.08 120.6,4.56 121.25,4.56 "/>
<polygon class="st4" points="44.19,160.05 15.56,160.05 24.06,133.12 52.69,133.12 "/>
<polygon class="st5" points="17.86,159.03 17.4,159.03 25.26,134.15 25.73,134.15 "/>
<polygon class="st6" points="98.23,125.64 97.69,125.64 99.23,120.83 99.77,120.83 "/>
<polygon class="st7" points="156.15,226.95 110.92,226.95 115.83,208.58 161.05,208.58 "/>
<line class="st8" x1="98.73" y1="124.24" x2="164.47" y2="124.24"/>
<polygon class="st6" points="52.56,220.17 52.02,220.17 53.55,215.36 54.1,215.36 "/>
<line class="st8" x1="53.05" y1="217.77" x2="113.63" y2="217.77"/>
<g>
	<g>
		<path class="st9" d="M18.38,121.75c-0.05-0.11-0.11-0.21-0.2-0.28s-0.19-0.12-0.31-0.15c-0.12-0.03-0.26-0.04-0.41-0.04
			c-0.1,0-0.21,0.01-0.33,0.04c-0.12,0.03-0.22,0.07-0.32,0.12c-0.1,0.06-0.18,0.13-0.24,0.22s-0.1,0.2-0.1,0.32
			c0,0.1,0.02,0.19,0.05,0.27c0.04,0.07,0.08,0.14,0.15,0.19s0.14,0.1,0.22,0.13s0.18,0.07,0.27,0.1l0.58,0.16
			c0.13,0.04,0.26,0.08,0.38,0.14c0.12,0.05,0.23,0.12,0.33,0.21s0.17,0.19,0.23,0.33c0.06,0.13,0.09,0.29,0.09,0.49
			c0,0.22-0.05,0.42-0.15,0.58s-0.23,0.3-0.39,0.4c-0.16,0.11-0.34,0.18-0.54,0.24c-0.2,0.05-0.39,0.08-0.58,0.08
			c-0.26,0-0.49-0.03-0.71-0.09c-0.22-0.06-0.4-0.15-0.55-0.27c-0.15-0.12-0.26-0.28-0.34-0.46c-0.08-0.19-0.11-0.42-0.09-0.68h0.57
			c-0.01,0.19,0.01,0.35,0.07,0.49c0.05,0.13,0.13,0.24,0.23,0.32s0.23,0.14,0.37,0.17s0.3,0.05,0.47,0.05
			c0.13,0,0.26-0.02,0.39-0.05s0.25-0.08,0.35-0.15c0.1-0.07,0.18-0.15,0.24-0.25c0.06-0.1,0.09-0.23,0.09-0.37
			c0-0.11-0.02-0.2-0.06-0.28c-0.04-0.08-0.1-0.14-0.17-0.2c-0.07-0.05-0.15-0.1-0.24-0.13c-0.09-0.04-0.19-0.07-0.29-0.1
			l-0.58-0.16c-0.13-0.04-0.25-0.08-0.37-0.14c-0.12-0.06-0.22-0.13-0.31-0.22s-0.16-0.19-0.21-0.31c-0.05-0.12-0.08-0.26-0.08-0.42
			c0-0.21,0.05-0.39,0.14-0.54c0.09-0.15,0.21-0.28,0.36-0.39c0.15-0.1,0.31-0.18,0.5-0.23c0.19-0.05,0.38-0.08,0.57-0.08
			c0.21,0,0.41,0.03,0.6,0.08c0.19,0.05,0.36,0.14,0.5,0.25c0.14,0.11,0.26,0.25,0.34,0.42c0.08,0.17,0.12,0.38,0.11,0.62h-0.57
			C18.45,122.01,18.43,121.87,18.38,121.75z"/>
		<path class="st9" d="M23.12,120.91l-0.1,0.48h-2.38l-0.29,1.36h2.22l-0.1,0.48h-2.23l-0.31,1.48h2.41l-0.11,0.48h-2.98l0.91-4.28
			H23.12z"/>
		<path class="st9" d="M25.94,121.75c-0.05-0.11-0.11-0.21-0.2-0.28s-0.19-0.12-0.31-0.15c-0.12-0.03-0.26-0.04-0.41-0.04
			c-0.1,0-0.21,0.01-0.33,0.04c-0.12,0.03-0.22,0.07-0.32,0.12c-0.1,0.06-0.18,0.13-0.24,0.22s-0.1,0.2-0.1,0.32
			c0,0.1,0.02,0.19,0.05,0.27c0.04,0.07,0.08,0.14,0.15,0.19s0.14,0.1,0.22,0.13s0.18,0.07,0.27,0.1l0.58,0.16
			c0.13,0.04,0.26,0.08,0.38,0.14c0.12,0.05,0.23,0.12,0.33,0.21s0.17,0.19,0.23,0.33c0.06,0.13,0.09,0.29,0.09,0.49
			c0,0.22-0.05,0.42-0.15,0.58s-0.23,0.3-0.39,0.4c-0.16,0.11-0.34,0.18-0.54,0.24c-0.2,0.05-0.39,0.08-0.58,0.08
			c-0.26,0-0.49-0.03-0.71-0.09c-0.22-0.06-0.4-0.15-0.55-0.27s-0.26-0.28-0.34-0.46c-0.08-0.19-0.11-0.42-0.09-0.68h0.57
			c-0.01,0.19,0.01,0.35,0.07,0.49c0.05,0.13,0.13,0.24,0.23,0.32s0.23,0.14,0.37,0.17s0.3,0.05,0.47,0.05
			c0.13,0,0.26-0.02,0.39-0.05s0.25-0.08,0.35-0.15c0.1-0.07,0.18-0.15,0.24-0.25c0.06-0.1,0.09-0.23,0.09-0.37
			c0-0.11-0.02-0.2-0.06-0.28c-0.04-0.08-0.1-0.14-0.17-0.2c-0.07-0.05-0.15-0.1-0.24-0.13c-0.09-0.04-0.19-0.07-0.29-0.1
			l-0.58-0.16c-0.13-0.04-0.25-0.08-0.37-0.14c-0.12-0.06-0.22-0.13-0.31-0.22s-0.16-0.19-0.21-0.31c-0.05-0.12-0.08-0.26-0.08-0.42
			c0-0.21,0.05-0.39,0.14-0.54c0.09-0.15,0.21-0.28,0.36-0.39c0.15-0.1,0.31-0.18,0.5-0.23c0.19-0.05,0.38-0.08,0.57-0.08
			c0.21,0,0.41,0.03,0.6,0.08c0.19,0.05,0.36,0.14,0.5,0.25c0.14,0.11,0.26,0.25,0.34,0.42c0.08,0.17,0.12,0.38,0.11,0.62H26
			C26.01,122.01,25.98,121.87,25.94,121.75z"/>
		<path class="st9" d="M31.1,120.91c0.42,0,0.72,0.09,0.91,0.27c0.19,0.18,0.28,0.43,0.28,0.76c0,0.12-0.02,0.24-0.06,0.35
			s-0.09,0.22-0.16,0.31c-0.07,0.09-0.15,0.17-0.25,0.24c-0.1,0.07-0.21,0.11-0.34,0.13v0.01c0.2,0.06,0.35,0.16,0.47,0.31
			c0.12,0.15,0.17,0.35,0.17,0.57c0,0.2-0.04,0.39-0.12,0.55c-0.08,0.16-0.19,0.3-0.32,0.42c-0.14,0.11-0.3,0.2-0.48,0.26
			c-0.18,0.06-0.38,0.09-0.59,0.09h-2.12l0.89-4.28H31.1z M30.51,124.71c0.07,0,0.17-0.01,0.28-0.02c0.12-0.01,0.23-0.05,0.34-0.11
			c0.11-0.06,0.21-0.14,0.29-0.25c0.08-0.11,0.12-0.27,0.12-0.46c0-0.14-0.02-0.25-0.07-0.33c-0.05-0.08-0.11-0.15-0.2-0.19
			s-0.18-0.07-0.28-0.09c-0.11-0.02-0.22-0.02-0.33-0.02h-1.22l-0.31,1.48H30.51z M30.81,122.75c0.61,0,0.91-0.27,0.91-0.82
			c0-0.13-0.03-0.23-0.08-0.3c-0.05-0.07-0.12-0.13-0.21-0.16s-0.18-0.06-0.27-0.07c-0.1-0.01-0.19-0.01-0.28-0.01h-1.06l-0.29,1.36
			H30.81z"/>
		<path class="st9" d="M36.45,120.91l-0.1,0.48h-2.38l-0.29,1.36h2.22l-0.1,0.48h-2.23l-0.31,1.48h2.41l-0.11,0.48H32.6l0.91-4.28
			H36.45z"/>
		<path class="st9" d="M39.27,121.75c-0.05-0.11-0.11-0.21-0.2-0.28s-0.19-0.12-0.31-0.15c-0.12-0.03-0.26-0.04-0.41-0.04
			c-0.1,0-0.21,0.01-0.33,0.04c-0.12,0.03-0.22,0.07-0.32,0.12c-0.1,0.06-0.18,0.13-0.24,0.22s-0.1,0.2-0.1,0.32
			c0,0.1,0.02,0.19,0.05,0.27c0.04,0.07,0.08,0.14,0.15,0.19s0.14,0.1,0.22,0.13s0.18,0.07,0.27,0.1l0.58,0.16
			c0.13,0.04,0.26,0.08,0.38,0.14c0.12,0.05,0.23,0.12,0.33,0.21s0.17,0.19,0.23,0.33c0.06,0.13,0.09,0.29,0.09,0.49
			c0,0.22-0.05,0.42-0.15,0.58s-0.23,0.3-0.39,0.4c-0.16,0.11-0.34,0.18-0.54,0.24c-0.2,0.05-0.39,0.08-0.58,0.08
			c-0.26,0-0.49-0.03-0.71-0.09c-0.22-0.06-0.4-0.15-0.55-0.27s-0.26-0.28-0.34-0.46c-0.08-0.19-0.11-0.42-0.09-0.68h0.57
			c-0.01,0.19,0.01,0.35,0.07,0.49c0.05,0.13,0.13,0.24,0.23,0.32s0.23,0.14,0.37,0.17s0.3,0.05,0.47,0.05
			c0.13,0,0.26-0.02,0.39-0.05s0.25-0.08,0.35-0.15c0.1-0.07,0.18-0.15,0.24-0.25c0.06-0.1,0.09-0.23,0.09-0.37
			c0-0.11-0.02-0.2-0.06-0.28c-0.04-0.08-0.1-0.14-0.17-0.2c-0.07-0.05-0.15-0.1-0.24-0.13c-0.09-0.04-0.19-0.07-0.29-0.1
			l-0.58-0.16c-0.13-0.04-0.25-0.08-0.37-0.14c-0.12-0.06-0.22-0.13-0.31-0.22s-0.16-0.19-0.21-0.31c-0.05-0.12-0.08-0.26-0.08-0.42
			c0-0.21,0.05-0.39,0.14-0.54c0.09-0.15,0.21-0.28,0.36-0.39c0.15-0.1,0.31-0.18,0.5-0.23c0.19-0.05,0.38-0.08,0.57-0.08
			c0.21,0,0.41,0.03,0.6,0.08c0.19,0.05,0.36,0.14,0.5,0.25c0.14,0.11,0.26,0.25,0.34,0.42c0.08,0.17,0.12,0.38,0.11,0.62h-0.57
			C39.34,122.01,39.32,121.87,39.27,121.75z"/>
		<path class="st9" d="M40.5,122.42c0.11-0.31,0.26-0.59,0.46-0.83c0.2-0.24,0.45-0.43,0.74-0.57c0.29-0.14,0.62-0.21,0.98-0.21
			c0.28,0,0.52,0.05,0.75,0.15c0.22,0.1,0.41,0.23,0.56,0.4c0.15,0.17,0.27,0.37,0.35,0.6c0.08,0.23,0.12,0.48,0.12,0.74
			c0,0.34-0.05,0.66-0.16,0.97c-0.11,0.31-0.26,0.59-0.46,0.83c-0.2,0.24-0.44,0.43-0.73,0.57c-0.29,0.14-0.61,0.21-0.96,0.21
			c-0.59,0-1.04-0.16-1.36-0.49c-0.32-0.33-0.48-0.79-0.48-1.38C40.34,123.07,40.39,122.74,40.5,122.42z M40.98,123.99
			c0.05,0.17,0.13,0.32,0.23,0.44s0.23,0.22,0.39,0.28c0.16,0.07,0.35,0.1,0.56,0.1c0.28,0,0.53-0.06,0.75-0.19
			c0.22-0.12,0.4-0.29,0.54-0.49s0.26-0.43,0.33-0.68c0.07-0.25,0.11-0.51,0.11-0.76c0-0.2-0.03-0.39-0.08-0.56
			c-0.05-0.17-0.13-0.32-0.23-0.45s-0.23-0.23-0.38-0.3s-0.33-0.11-0.52-0.11c-0.3,0-0.56,0.06-0.78,0.19
			c-0.22,0.13-0.41,0.29-0.55,0.49c-0.15,0.2-0.26,0.43-0.33,0.68c-0.07,0.25-0.11,0.51-0.11,0.77
			C40.91,123.62,40.93,123.81,40.98,123.99z"/>
		<path class="st9" d="M46.17,120.91l-0.9,4.28H44.7l0.9-4.28H46.17z"/>
		<path class="st9" d="M47.78,120.91l1.53,3.55h0.01l0.71-3.55h0.55l-0.91,4.28h-0.61l-1.52-3.52h-0.01l-0.73,3.52h-0.55l0.91-4.28
			H47.78z"/>
		<path class="st9" d="M53.6,121.75c-0.05-0.11-0.11-0.21-0.2-0.28s-0.19-0.12-0.31-0.15c-0.12-0.03-0.26-0.04-0.41-0.04
			c-0.1,0-0.21,0.01-0.33,0.04c-0.12,0.03-0.22,0.07-0.32,0.12c-0.1,0.06-0.18,0.13-0.24,0.22s-0.1,0.2-0.1,0.32
			c0,0.1,0.02,0.19,0.05,0.27c0.04,0.07,0.08,0.14,0.15,0.19s0.14,0.1,0.22,0.13s0.18,0.07,0.27,0.1l0.58,0.16
			c0.13,0.04,0.26,0.08,0.38,0.14c0.12,0.05,0.23,0.12,0.33,0.21s0.17,0.19,0.23,0.33c0.06,0.13,0.09,0.29,0.09,0.49
			c0,0.22-0.05,0.42-0.15,0.58s-0.23,0.3-0.39,0.4c-0.16,0.11-0.34,0.18-0.54,0.24c-0.2,0.05-0.39,0.08-0.58,0.08
			c-0.26,0-0.49-0.03-0.71-0.09c-0.22-0.06-0.4-0.15-0.55-0.27s-0.26-0.28-0.34-0.46c-0.08-0.19-0.11-0.42-0.09-0.68h0.57
			c-0.01,0.19,0.01,0.35,0.07,0.49c0.05,0.13,0.13,0.24,0.23,0.32s0.23,0.14,0.37,0.17s0.3,0.05,0.47,0.05
			c0.13,0,0.26-0.02,0.39-0.05s0.25-0.08,0.35-0.15c0.1-0.07,0.18-0.15,0.24-0.25c0.06-0.1,0.09-0.23,0.09-0.37
			c0-0.11-0.02-0.2-0.06-0.28c-0.04-0.08-0.1-0.14-0.17-0.2c-0.07-0.05-0.15-0.1-0.24-0.13c-0.09-0.04-0.19-0.07-0.29-0.1
			l-0.58-0.16c-0.13-0.04-0.25-0.08-0.37-0.14c-0.12-0.06-0.22-0.13-0.31-0.22s-0.16-0.19-0.21-0.31c-0.05-0.12-0.08-0.26-0.08-0.42
			c0-0.21,0.05-0.39,0.14-0.54c0.09-0.15,0.21-0.28,0.36-0.39c0.15-0.1,0.31-0.18,0.5-0.23c0.19-0.05,0.38-0.08,0.57-0.08
			c0.21,0,0.41,0.03,0.6,0.08c0.19,0.05,0.36,0.14,0.5,0.25c0.14,0.11,0.26,0.25,0.34,0.42c0.08,0.17,0.12,0.38,0.11,0.62h-0.57
			C53.67,122.01,53.64,121.87,53.6,121.75z"/>
		<path class="st9" d="M60,120.91l-0.1,0.48h-2.38l-0.29,1.36h2.22l-0.1,0.48h-2.23l-0.31,1.48h2.41l-0.11,0.48h-2.98l0.91-4.28H60z
			"/>
		<path class="st9" d="M61.33,120.91l1.53,3.55h0.01l0.71-3.55h0.55l-0.91,4.28h-0.61l-1.52-3.52h-0.01l-0.73,3.52h-0.55l0.91-4.28
			H61.33z"/>
		<path class="st9" d="M68.22,120.91c0.53,0,0.93,0.15,1.21,0.44c0.27,0.29,0.41,0.69,0.41,1.2c0,0.4-0.06,0.77-0.17,1.1
			c-0.12,0.33-0.28,0.6-0.49,0.83c-0.21,0.23-0.46,0.41-0.75,0.53c-0.29,0.12-0.62,0.19-0.97,0.19h-1.64l0.91-4.28H68.22z
			 M67.46,124.71c0.3,0,0.57-0.06,0.79-0.18s0.41-0.28,0.56-0.48c0.15-0.2,0.26-0.42,0.34-0.68c0.07-0.25,0.11-0.51,0.11-0.77
			c0-0.16-0.02-0.31-0.05-0.46c-0.03-0.15-0.09-0.28-0.18-0.39c-0.09-0.11-0.21-0.2-0.36-0.27c-0.15-0.07-0.35-0.1-0.58-0.1h-0.91
			l-0.7,3.32H67.46z"/>
		<path class="st9" d="M70.38,122.42c0.11-0.31,0.26-0.59,0.46-0.83c0.2-0.24,0.45-0.43,0.74-0.57c0.29-0.14,0.62-0.21,0.98-0.21
			c0.28,0,0.52,0.05,0.75,0.15c0.22,0.1,0.41,0.23,0.56,0.4c0.15,0.17,0.27,0.37,0.35,0.6c0.08,0.23,0.12,0.48,0.12,0.74
			c0,0.34-0.05,0.66-0.16,0.97c-0.11,0.31-0.26,0.59-0.46,0.83c-0.2,0.24-0.44,0.43-0.73,0.57c-0.29,0.14-0.61,0.21-0.96,0.21
			c-0.59,0-1.04-0.16-1.36-0.49c-0.32-0.33-0.48-0.79-0.48-1.38C70.22,123.07,70.28,122.74,70.38,122.42z M70.87,123.99
			c0.05,0.17,0.13,0.32,0.23,0.44s0.23,0.22,0.39,0.28c0.16,0.07,0.35,0.1,0.56,0.1c0.28,0,0.53-0.06,0.75-0.19
			c0.22-0.12,0.4-0.29,0.54-0.49s0.26-0.43,0.33-0.68c0.07-0.25,0.11-0.51,0.11-0.76c0-0.2-0.03-0.39-0.08-0.56
			c-0.05-0.17-0.13-0.32-0.23-0.45s-0.23-0.23-0.38-0.3s-0.33-0.11-0.52-0.11c-0.3,0-0.56,0.06-0.78,0.19
			c-0.22,0.13-0.41,0.29-0.55,0.49c-0.15,0.2-0.26,0.43-0.33,0.68c-0.07,0.25-0.11,0.51-0.11,0.77
			C70.79,123.62,70.82,123.81,70.87,123.99z"/>
		<path class="st9" d="M76.11,120.91l1.53,3.55h0.01l0.71-3.55h0.55l-0.91,4.28H77.4l-1.52-3.52h-0.01l-0.73,3.52h-0.55l0.91-4.28
			H76.11z"/>
		<path class="st9" d="M80.44,120.91l1.53,3.55h0.01l0.71-3.55h0.55l-0.91,4.28h-0.61l-1.52-3.52H80.2l-0.73,3.52h-0.55l0.91-4.28
			H80.44z"/>
		<path class="st9" d="M87.11,120.91l-0.1,0.48h-2.38l-0.29,1.36h2.22l-0.1,0.48h-2.23l-0.31,1.48h2.41l-0.11,0.48h-2.98l0.91-4.28
			H87.11z M86.62,119.81l-0.82,0.86h-0.42l0.56-0.86H86.62z"/>
		<path class="st9" d="M90.78,120.91l-0.1,0.48H88.3l-0.29,1.36h2.22l-0.1,0.48h-2.23l-0.31,1.48h2.41l-0.11,0.48h-2.98l0.91-4.28
			H90.78z"/>
		<path class="st9" d="M93.59,121.75c-0.05-0.11-0.11-0.21-0.2-0.28s-0.19-0.12-0.31-0.15c-0.12-0.03-0.26-0.04-0.41-0.04
			c-0.1,0-0.21,0.01-0.33,0.04c-0.12,0.03-0.22,0.07-0.32,0.12c-0.1,0.06-0.18,0.13-0.24,0.22s-0.1,0.2-0.1,0.32
			c0,0.1,0.02,0.19,0.05,0.27c0.04,0.07,0.08,0.14,0.15,0.19s0.14,0.1,0.22,0.13s0.18,0.07,0.27,0.1l0.58,0.16
			c0.13,0.04,0.26,0.08,0.38,0.14c0.12,0.05,0.23,0.12,0.33,0.21s0.17,0.19,0.23,0.33c0.06,0.13,0.09,0.29,0.09,0.49
			c0,0.22-0.05,0.42-0.15,0.58s-0.23,0.3-0.39,0.4c-0.16,0.11-0.34,0.18-0.54,0.24c-0.2,0.05-0.39,0.08-0.58,0.08
			c-0.26,0-0.49-0.03-0.71-0.09c-0.22-0.06-0.4-0.15-0.55-0.27s-0.26-0.28-0.34-0.46c-0.08-0.19-0.11-0.42-0.09-0.68h0.57
			c-0.01,0.19,0.01,0.35,0.07,0.49c0.05,0.13,0.13,0.24,0.23,0.32s0.23,0.14,0.37,0.17s0.3,0.05,0.47,0.05
			c0.13,0,0.26-0.02,0.39-0.05s0.25-0.08,0.35-0.15c0.1-0.07,0.18-0.15,0.24-0.25c0.06-0.1,0.09-0.23,0.09-0.37
			c0-0.11-0.02-0.2-0.06-0.28c-0.04-0.08-0.1-0.14-0.17-0.2c-0.07-0.05-0.15-0.1-0.24-0.13c-0.09-0.04-0.19-0.07-0.29-0.1
			l-0.58-0.16c-0.13-0.04-0.25-0.08-0.37-0.14c-0.12-0.06-0.22-0.13-0.31-0.22s-0.16-0.19-0.21-0.31c-0.05-0.12-0.08-0.26-0.08-0.42
			c0-0.21,0.05-0.39,0.14-0.54c0.09-0.15,0.21-0.28,0.36-0.39c0.15-0.1,0.31-0.18,0.5-0.23c0.19-0.05,0.38-0.08,0.57-0.08
			c0.21,0,0.41,0.03,0.6,0.08c0.19,0.05,0.36,0.14,0.5,0.25c0.14,0.11,0.26,0.25,0.34,0.42c0.08,0.17,0.12,0.38,0.11,0.62h-0.57
			C93.66,122.01,93.64,121.87,93.59,121.75z"/>
	</g>
</g>
<g>
	<g>
		<path class="st9" d="M18.33,215.58c0.18,0,0.35,0.02,0.52,0.05c0.17,0.03,0.32,0.09,0.45,0.18c0.13,0.08,0.24,0.2,0.31,0.34
			c0.08,0.14,0.12,0.32,0.12,0.53c0,0.14-0.02,0.28-0.07,0.41s-0.11,0.25-0.2,0.35c-0.08,0.1-0.19,0.19-0.3,0.26
			c-0.12,0.07-0.25,0.11-0.39,0.13v0.01c0.09,0.03,0.17,0.07,0.23,0.13c0.06,0.06,0.11,0.13,0.14,0.21s0.06,0.17,0.07,0.27
			c0.01,0.1,0.01,0.2,0,0.31c-0.01,0.1-0.02,0.19-0.04,0.28c-0.02,0.09-0.03,0.19-0.04,0.28c-0.01,0.09-0.01,0.19,0,0.27
			c0.01,0.09,0.03,0.17,0.08,0.26h-0.59c-0.03-0.08-0.04-0.2-0.05-0.35c0-0.16,0.02-0.34,0.06-0.56c0.03-0.19,0.04-0.35,0.03-0.46
			c-0.01-0.12-0.04-0.21-0.09-0.27c-0.04-0.06-0.1-0.11-0.16-0.13c-0.06-0.02-0.13-0.04-0.19-0.04h-0.23h-1.27l-0.38,1.83h-0.57
			l0.91-4.28H18.33z M18.11,217.55c0.22,0,0.41-0.03,0.54-0.09c0.14-0.06,0.25-0.13,0.32-0.22c0.08-0.09,0.13-0.18,0.15-0.28
			c0.03-0.1,0.04-0.19,0.04-0.26c0-0.13-0.02-0.24-0.07-0.32c-0.05-0.08-0.11-0.15-0.19-0.2c-0.08-0.05-0.17-0.08-0.27-0.1
			c-0.1-0.02-0.2-0.03-0.31-0.03h-1.18l-0.32,1.49H18.11z"/>
		<path class="st9" d="M22.71,215.58l0.77,4.28H22.9l-0.2-1.29h-1.81l-0.75,1.29h-0.63l2.57-4.28H22.71z M22.63,218.09l-0.32-2.01
			H22.3l-1.15,2.01H22.63z"/>
		<path class="st9" d="M26.46,215.58c0.41,0,0.73,0.1,0.94,0.29c0.22,0.2,0.33,0.49,0.33,0.89c0,0.13-0.03,0.28-0.08,0.43
			c-0.05,0.16-0.14,0.3-0.27,0.44c-0.13,0.14-0.29,0.25-0.5,0.34s-0.47,0.13-0.79,0.13h-1.27l-0.37,1.75h-0.57l0.89-4.28H26.46z
			 M26.22,217.63c0.31,0,0.55-0.08,0.71-0.24c0.16-0.16,0.24-0.37,0.24-0.63c0-0.13-0.02-0.24-0.06-0.33
			c-0.04-0.09-0.09-0.16-0.15-0.22c-0.06-0.05-0.14-0.09-0.22-0.12c-0.08-0.02-0.17-0.04-0.27-0.04h-1.21l-0.33,1.57H26.22z"/>
		<path class="st9" d="M30.35,215.58c0.41,0,0.73,0.1,0.94,0.29c0.22,0.2,0.33,0.49,0.33,0.89c0,0.13-0.03,0.28-0.08,0.43
			c-0.05,0.16-0.14,0.3-0.27,0.44c-0.13,0.14-0.29,0.25-0.5,0.34s-0.47,0.13-0.79,0.13h-1.27l-0.37,1.75h-0.57l0.89-4.28H30.35z
			 M30.1,217.63c0.31,0,0.55-0.08,0.71-0.24c0.16-0.16,0.24-0.37,0.24-0.63c0-0.13-0.02-0.24-0.06-0.33
			c-0.04-0.09-0.09-0.16-0.15-0.22c-0.06-0.05-0.14-0.09-0.22-0.12c-0.08-0.02-0.17-0.04-0.27-0.04h-1.21l-0.33,1.57H30.1z"/>
		<path class="st9" d="M32.01,217.09c0.11-0.31,0.26-0.59,0.46-0.83c0.2-0.24,0.45-0.43,0.74-0.57c0.29-0.14,0.62-0.21,0.98-0.21
			c0.28,0,0.52,0.05,0.75,0.15c0.22,0.1,0.41,0.23,0.56,0.4c0.15,0.17,0.27,0.37,0.35,0.6c0.08,0.23,0.12,0.48,0.12,0.74
			c0,0.34-0.05,0.66-0.16,0.97c-0.11,0.31-0.26,0.59-0.46,0.83c-0.2,0.24-0.44,0.43-0.73,0.57c-0.29,0.14-0.61,0.21-0.96,0.21
			c-0.59,0-1.04-0.16-1.36-0.49c-0.32-0.33-0.48-0.79-0.48-1.38C31.84,217.74,31.9,217.41,32.01,217.09z M32.49,218.66
			c0.05,0.17,0.13,0.32,0.23,0.44s0.23,0.22,0.39,0.28c0.16,0.07,0.35,0.1,0.56,0.1c0.28,0,0.53-0.06,0.75-0.19
			c0.22-0.12,0.4-0.29,0.54-0.49s0.26-0.43,0.33-0.68c0.07-0.25,0.11-0.51,0.11-0.76c0-0.2-0.03-0.39-0.08-0.56
			c-0.05-0.17-0.13-0.32-0.23-0.45s-0.23-0.23-0.38-0.3s-0.33-0.11-0.52-0.11c-0.3,0-0.56,0.06-0.78,0.19
			c-0.22,0.13-0.41,0.29-0.55,0.49c-0.15,0.2-0.26,0.43-0.33,0.68c-0.07,0.25-0.11,0.51-0.11,0.77
			C32.41,218.29,32.44,218.48,32.49,218.66z"/>
		<path class="st9" d="M38.77,215.58c0.18,0,0.35,0.02,0.52,0.05c0.17,0.03,0.32,0.09,0.45,0.18c0.13,0.08,0.24,0.2,0.31,0.34
			c0.08,0.14,0.12,0.32,0.12,0.53c0,0.14-0.02,0.28-0.07,0.41s-0.11,0.25-0.2,0.35c-0.08,0.1-0.19,0.19-0.3,0.26
			c-0.12,0.07-0.25,0.11-0.39,0.13v0.01c0.09,0.03,0.17,0.07,0.23,0.13c0.06,0.06,0.11,0.13,0.14,0.21s0.06,0.17,0.07,0.27
			c0.01,0.1,0.01,0.2,0,0.31c-0.01,0.1-0.02,0.19-0.04,0.28c-0.02,0.09-0.03,0.19-0.04,0.28c-0.01,0.09-0.01,0.19,0,0.27
			c0.01,0.09,0.03,0.17,0.08,0.26h-0.59c-0.03-0.08-0.04-0.2-0.05-0.35c0-0.16,0.02-0.34,0.06-0.56c0.03-0.19,0.04-0.35,0.03-0.46
			c-0.01-0.12-0.04-0.21-0.09-0.27c-0.04-0.06-0.1-0.11-0.16-0.13c-0.06-0.02-0.13-0.04-0.19-0.04h-0.23h-1.27l-0.38,1.83h-0.57
			l0.91-4.28H38.77z M38.55,217.55c0.22,0,0.41-0.03,0.54-0.09c0.14-0.06,0.25-0.13,0.32-0.22c0.08-0.09,0.13-0.18,0.15-0.28
			c0.03-0.1,0.04-0.19,0.04-0.26c0-0.13-0.02-0.24-0.07-0.32c-0.05-0.08-0.11-0.15-0.19-0.2c-0.08-0.05-0.17-0.08-0.27-0.1
			c-0.1-0.02-0.2-0.03-0.31-0.03h-1.18l-0.32,1.49H38.55z"/>
		<path class="st9" d="M42.65,216.06l-0.8,3.8h-0.57l0.8-3.8h-1.44l0.1-0.48h3.46l-0.11,0.48H42.65z"/>
		<path class="st9" d="M47.62,215.58l-0.1,0.48h-2.38l-0.29,1.36h2.22l-0.1,0.48h-2.23l-0.31,1.48h2.41l-0.11,0.48h-2.98l0.91-4.28
			H47.62z"/>
	</g>
</g>
<polygon class="st6" points="86.53,186.67 85.99,186.67 87.53,181.86 88.07,181.86 "/>
<line class="st8" x1="86.91" y1="184.27" x2="113.13" y2="184.27"/>
<g>
	<g>
		<path class="st9" d="M19.05,186.05c-0.31,0.27-0.74,0.41-1.26,0.41c-0.59,0-1.04-0.16-1.36-0.49c-0.32-0.33-0.48-0.79-0.48-1.38
			c0-0.35,0.05-0.68,0.16-0.99c0.11-0.31,0.26-0.59,0.46-0.83c0.2-0.24,0.45-0.43,0.74-0.57c0.29-0.14,0.62-0.21,0.98-0.21
			c0.23,0,0.45,0.03,0.65,0.09c0.2,0.06,0.37,0.15,0.52,0.28c0.15,0.12,0.26,0.28,0.34,0.46c0.08,0.19,0.13,0.4,0.13,0.65h-0.57
			c0-0.34-0.1-0.59-0.3-0.75c-0.2-0.17-0.45-0.25-0.77-0.25c-0.3,0-0.56,0.06-0.78,0.19c-0.22,0.13-0.41,0.29-0.55,0.49
			c-0.15,0.2-0.26,0.43-0.33,0.68c-0.07,0.25-0.11,0.51-0.11,0.77c0,0.21,0.03,0.4,0.08,0.57c0.05,0.17,0.13,0.32,0.23,0.44
			s0.23,0.22,0.39,0.28c0.16,0.07,0.35,0.1,0.56,0.1c0.35,0,0.64-0.09,0.86-0.28c0.22-0.19,0.38-0.45,0.47-0.79h0.57
			C19.58,185.4,19.37,185.77,19.05,186.05z"/>
		<path class="st9" d="M20.45,183.59c0.11-0.31,0.26-0.59,0.46-0.83c0.2-0.24,0.45-0.43,0.74-0.57c0.29-0.14,0.62-0.21,0.98-0.21
			c0.28,0,0.52,0.05,0.75,0.15c0.22,0.1,0.41,0.23,0.56,0.4c0.15,0.17,0.27,0.37,0.35,0.6c0.08,0.23,0.12,0.48,0.12,0.74
			c0,0.34-0.05,0.66-0.16,0.97c-0.11,0.31-0.26,0.59-0.46,0.83c-0.2,0.24-0.44,0.43-0.73,0.57c-0.29,0.14-0.61,0.21-0.96,0.21
			c-0.59,0-1.04-0.16-1.36-0.49c-0.32-0.33-0.48-0.79-0.48-1.38C20.29,184.24,20.34,183.91,20.45,183.59z M20.94,185.16
			c0.05,0.17,0.13,0.32,0.23,0.44s0.23,0.22,0.39,0.28c0.16,0.07,0.35,0.1,0.56,0.1c0.28,0,0.53-0.06,0.75-0.19
			c0.22-0.12,0.4-0.29,0.54-0.49s0.26-0.43,0.33-0.68c0.07-0.25,0.11-0.51,0.11-0.76c0-0.2-0.03-0.39-0.08-0.56
			c-0.05-0.17-0.13-0.32-0.23-0.45s-0.23-0.23-0.38-0.3s-0.33-0.11-0.52-0.11c-0.3,0-0.56,0.06-0.78,0.19
			c-0.22,0.13-0.41,0.29-0.55,0.49c-0.15,0.2-0.26,0.43-0.33,0.68c-0.07,0.25-0.11,0.51-0.11,0.77
			C20.86,184.79,20.88,184.98,20.94,185.16z"/>
		<path class="st9" d="M26.17,182.08l1.53,3.55h0.01l0.71-3.55h0.55l-0.91,4.28h-0.61l-1.52-3.52h-0.01l-0.73,3.52h-0.55l0.91-4.28
			H26.17z"/>
		<path class="st9" d="M32.7,182.08l-0.1,0.48h-2.25l-0.28,1.36h1.98l-0.1,0.48h-1.98l-0.41,1.96h-0.57l0.89-4.28H32.7z"/>
		<path class="st9" d="M32.78,183.59c0.11-0.31,0.26-0.59,0.46-0.83c0.2-0.24,0.45-0.43,0.74-0.57c0.29-0.14,0.62-0.21,0.98-0.21
			c0.28,0,0.52,0.05,0.75,0.15c0.22,0.1,0.41,0.23,0.56,0.4c0.15,0.17,0.27,0.37,0.35,0.6c0.08,0.23,0.12,0.48,0.12,0.74
			c0,0.34-0.05,0.66-0.16,0.97c-0.11,0.31-0.26,0.59-0.46,0.83c-0.2,0.24-0.44,0.43-0.73,0.57c-0.29,0.14-0.61,0.21-0.96,0.21
			c-0.59,0-1.04-0.16-1.36-0.49c-0.32-0.33-0.48-0.79-0.48-1.38C32.62,184.24,32.67,183.91,32.78,183.59z M33.27,185.16
			c0.05,0.17,0.13,0.32,0.23,0.44s0.23,0.22,0.39,0.28c0.16,0.07,0.35,0.1,0.56,0.1c0.28,0,0.53-0.06,0.75-0.19
			c0.22-0.12,0.4-0.29,0.54-0.49s0.26-0.43,0.33-0.68c0.07-0.25,0.11-0.51,0.11-0.76c0-0.2-0.03-0.39-0.08-0.56
			c-0.05-0.17-0.13-0.32-0.23-0.45s-0.23-0.23-0.38-0.3s-0.33-0.11-0.52-0.11c-0.3,0-0.56,0.06-0.78,0.19
			c-0.22,0.13-0.41,0.29-0.55,0.49c-0.15,0.2-0.26,0.43-0.33,0.68c-0.07,0.25-0.11,0.51-0.11,0.77
			C33.19,184.79,33.21,184.98,33.27,185.16z"/>
		<path class="st9" d="M39.54,182.08c0.18,0,0.35,0.02,0.52,0.05c0.17,0.03,0.32,0.09,0.45,0.18c0.13,0.08,0.24,0.2,0.31,0.34
			c0.08,0.14,0.12,0.32,0.12,0.53c0,0.14-0.02,0.28-0.07,0.41s-0.11,0.25-0.2,0.35c-0.08,0.1-0.19,0.19-0.3,0.26
			c-0.12,0.07-0.25,0.11-0.39,0.13v0.01c0.09,0.03,0.17,0.07,0.23,0.13c0.06,0.06,0.11,0.13,0.14,0.21s0.06,0.17,0.07,0.27
			c0.01,0.1,0.01,0.2,0,0.31c-0.01,0.1-0.02,0.19-0.04,0.28c-0.02,0.09-0.03,0.19-0.04,0.28c-0.01,0.09-0.01,0.19,0,0.27
			c0.01,0.09,0.03,0.17,0.08,0.26h-0.59c-0.03-0.08-0.04-0.2-0.05-0.35c0-0.16,0.02-0.34,0.06-0.56c0.03-0.19,0.04-0.35,0.03-0.46
			c-0.01-0.12-0.04-0.21-0.09-0.27c-0.04-0.06-0.1-0.11-0.16-0.13c-0.06-0.02-0.13-0.04-0.19-0.04h-0.23h-1.27l-0.38,1.83h-0.57
			l0.91-4.28H39.54z M39.32,184.05c0.22,0,0.41-0.03,0.54-0.09c0.14-0.06,0.25-0.13,0.32-0.22c0.08-0.09,0.13-0.18,0.15-0.28
			c0.03-0.1,0.04-0.19,0.04-0.26c0-0.13-0.02-0.24-0.07-0.32c-0.05-0.08-0.11-0.15-0.19-0.2c-0.08-0.05-0.17-0.08-0.27-0.1
			c-0.1-0.02-0.2-0.03-0.31-0.03h-1.18l-0.32,1.49H39.32z"/>
		<path class="st9" d="M42.79,182.08l0.57,3.68h0.01l2.12-3.68h0.79l-0.91,4.28h-0.55l0.88-3.75h-0.01l-2.18,3.75h-0.55l-0.56-3.75
			h-0.01l-0.75,3.75h-0.55l0.9-4.28H42.79z"/>
		<path class="st9" d="M47.78,182.08l-0.9,4.28h-0.57l0.9-4.28H47.78z"/>
		<path class="st9" d="M50.2,182.56l-0.8,3.8h-0.57l0.8-3.8h-1.44l0.1-0.48h3.46l-0.11,0.48H50.2z"/>
		<path class="st9" d="M55.17,182.08l-0.1,0.48h-2.38l-0.29,1.36h2.22l-0.1,0.48H52.3l-0.31,1.48h2.41l-0.11,0.48h-2.98l0.91-4.28
			H55.17z M54.68,180.98l-0.82,0.86h-0.42l0.56-0.86H54.68z"/>
		<path class="st9" d="M59.2,182.08c0.18,0,0.35,0.02,0.52,0.05c0.17,0.03,0.32,0.09,0.45,0.18c0.13,0.08,0.24,0.2,0.31,0.34
			c0.08,0.14,0.12,0.32,0.12,0.53c0,0.14-0.02,0.28-0.07,0.41s-0.11,0.25-0.2,0.35c-0.08,0.1-0.19,0.19-0.3,0.26
			c-0.12,0.07-0.25,0.11-0.39,0.13v0.01c0.09,0.03,0.17,0.07,0.23,0.13c0.06,0.06,0.11,0.13,0.14,0.21s0.06,0.17,0.07,0.27
			c0.01,0.1,0.01,0.2,0,0.31c-0.01,0.1-0.02,0.19-0.04,0.28c-0.02,0.09-0.03,0.19-0.04,0.28c-0.01,0.09-0.01,0.19,0,0.27
			c0.01,0.09,0.03,0.17,0.08,0.26H59.5c-0.03-0.08-0.04-0.2-0.05-0.35c0-0.16,0.02-0.34,0.06-0.56c0.03-0.19,0.04-0.35,0.03-0.46
			c-0.01-0.12-0.04-0.21-0.09-0.27c-0.04-0.06-0.1-0.11-0.16-0.13c-0.06-0.02-0.13-0.04-0.19-0.04h-0.23H57.6l-0.38,1.83h-0.57
			l0.91-4.28H59.2z M58.99,184.05c0.22,0,0.41-0.03,0.54-0.09c0.14-0.06,0.25-0.13,0.32-0.22c0.08-0.09,0.13-0.18,0.15-0.28
			c0.03-0.1,0.04-0.19,0.04-0.26c0-0.13-0.02-0.24-0.07-0.32c-0.05-0.08-0.11-0.15-0.19-0.2c-0.08-0.05-0.17-0.08-0.27-0.1
			c-0.1-0.02-0.2-0.03-0.31-0.03h-1.18l-0.32,1.49H58.99z"/>
		<path class="st9" d="M64.61,182.08l-0.1,0.48h-2.38l-0.29,1.36h2.22l-0.1,0.48h-2.23l-0.31,1.48h2.41l-0.11,0.48h-2.98l0.91-4.28
			H64.61z"/>
		<path class="st9" d="M67.44,186.23c-0.29,0.15-0.62,0.23-1,0.23c-0.59,0-1.04-0.16-1.36-0.49c-0.32-0.33-0.48-0.79-0.48-1.38
			c0-0.35,0.05-0.68,0.16-0.99c0.11-0.31,0.26-0.59,0.46-0.83c0.2-0.24,0.45-0.43,0.74-0.57c0.29-0.14,0.62-0.21,0.98-0.21
			c0.28,0,0.52,0.05,0.75,0.15c0.22,0.1,0.41,0.23,0.56,0.4c0.15,0.17,0.27,0.37,0.35,0.6c0.08,0.23,0.12,0.48,0.12,0.74
			c0,0.41-0.08,0.8-0.24,1.17c-0.16,0.37-0.38,0.68-0.67,0.92l0.52,0.5l-0.32,0.34L67.44,186.23z M67.46,185.61
			c0.12-0.1,0.23-0.22,0.31-0.35c0.09-0.13,0.16-0.27,0.22-0.43c0.06-0.15,0.1-0.31,0.13-0.47c0.03-0.16,0.04-0.33,0.04-0.49
			c0-0.2-0.03-0.39-0.08-0.56c-0.05-0.17-0.13-0.32-0.23-0.45s-0.23-0.23-0.38-0.3s-0.33-0.11-0.52-0.11c-0.3,0-0.56,0.06-0.78,0.19
			c-0.22,0.13-0.41,0.29-0.55,0.49c-0.15,0.2-0.26,0.43-0.33,0.68c-0.07,0.25-0.11,0.51-0.11,0.77c0,0.21,0.03,0.4,0.08,0.57
			c0.05,0.17,0.13,0.32,0.23,0.44s0.23,0.22,0.39,0.28c0.16,0.07,0.35,0.1,0.56,0.1c0.23,0,0.43-0.04,0.61-0.13l-0.39-0.37
			l0.32-0.34L67.46,185.61z"/>
		<path class="st9" d="M72.66,185.12c-0.04,0.15-0.07,0.26-0.11,0.35c-0.07,0.18-0.17,0.33-0.28,0.45
			c-0.11,0.13-0.24,0.23-0.39,0.31c-0.15,0.08-0.3,0.14-0.47,0.17s-0.35,0.05-0.52,0.05c-0.64,0-1.09-0.16-1.35-0.48
			c-0.26-0.32-0.33-0.78-0.21-1.38l0.53-2.52h0.57l-0.56,2.66c-0.1,0.42-0.06,0.73,0.12,0.94c0.18,0.2,0.47,0.31,0.89,0.31
			c0.24,0,0.43-0.03,0.58-0.1c0.15-0.06,0.27-0.16,0.36-0.27c0.09-0.12,0.17-0.26,0.22-0.42c0.05-0.16,0.1-0.35,0.15-0.55l0.54-2.57
			h0.57l-0.53,2.57C72.73,184.81,72.7,184.97,72.66,185.12z"/>
		<path class="st9" d="M74.78,182.08l-0.9,4.28h-0.57l0.9-4.28H74.78z"/>
		<path class="st9" d="M77.87,182.92c-0.05-0.11-0.11-0.21-0.2-0.28s-0.19-0.12-0.31-0.15c-0.12-0.03-0.26-0.04-0.41-0.04
			c-0.1,0-0.21,0.01-0.33,0.04c-0.12,0.03-0.22,0.07-0.32,0.12c-0.1,0.06-0.18,0.13-0.24,0.22s-0.1,0.2-0.1,0.32
			c0,0.1,0.02,0.19,0.05,0.27c0.04,0.07,0.08,0.14,0.15,0.19s0.14,0.1,0.22,0.13s0.18,0.07,0.27,0.1l0.58,0.16
			c0.13,0.04,0.26,0.08,0.38,0.14c0.12,0.05,0.23,0.12,0.33,0.21s0.17,0.19,0.23,0.33c0.06,0.13,0.09,0.29,0.09,0.49
			c0,0.22-0.05,0.42-0.15,0.58s-0.23,0.3-0.39,0.4c-0.16,0.11-0.34,0.18-0.54,0.24c-0.2,0.05-0.39,0.08-0.58,0.08
			c-0.26,0-0.49-0.03-0.71-0.09c-0.22-0.06-0.4-0.15-0.55-0.27s-0.26-0.28-0.34-0.46c-0.08-0.19-0.11-0.42-0.09-0.68h0.57
			c-0.01,0.19,0.01,0.35,0.07,0.49c0.05,0.13,0.13,0.24,0.23,0.32s0.23,0.14,0.37,0.17s0.3,0.05,0.47,0.05
			c0.13,0,0.26-0.02,0.39-0.05s0.25-0.08,0.35-0.15c0.1-0.07,0.18-0.15,0.24-0.25c0.06-0.1,0.09-0.23,0.09-0.37
			c0-0.11-0.02-0.2-0.06-0.28c-0.04-0.08-0.1-0.14-0.17-0.2c-0.07-0.05-0.15-0.1-0.24-0.13c-0.09-0.04-0.19-0.07-0.29-0.1
			l-0.58-0.16c-0.13-0.04-0.25-0.08-0.37-0.14c-0.12-0.06-0.22-0.13-0.31-0.22s-0.16-0.19-0.21-0.31c-0.05-0.12-0.08-0.26-0.08-0.42
			c0-0.21,0.05-0.39,0.14-0.54c0.09-0.15,0.21-0.28,0.36-0.39c0.15-0.1,0.31-0.18,0.5-0.23c0.19-0.05,0.38-0.08,0.57-0.08
			c0.21,0,0.41,0.03,0.6,0.08c0.19,0.05,0.36,0.14,0.5,0.25c0.14,0.11,0.26,0.25,0.34,0.42c0.08,0.17,0.12,0.38,0.11,0.62h-0.57
			C77.94,183.18,77.92,183.04,77.87,182.92z"/>
		<path class="st9" d="M82.61,182.08l-0.1,0.48h-2.38l-0.29,1.36h2.22l-0.1,0.48h-2.23l-0.31,1.48h2.41l-0.11,0.48h-2.98l0.91-4.28
			H82.61z"/>
	</g>
</g>
<polygon class="st5" points="42.9,159.03 42.44,159.03 50.3,134.15 50.77,134.15 "/>
<polygon class="st6" points="159.3,227.19 158.76,227.19 163.93,208.33 164.47,208.33 "/>
<line class="st8" x1="58.32" y1="50.75" x2="164.47" y2="50.75"/>
<g>
	<rect x="15.56" y="48.38" class="st0" width="42.76" height="4.53"/>
	<path class="st9" d="M18.61,49.22c-0.05-0.11-0.11-0.21-0.2-0.28s-0.19-0.12-0.31-0.15c-0.12-0.03-0.26-0.04-0.41-0.04
		c-0.1,0-0.21,0.01-0.33,0.04c-0.12,0.03-0.22,0.07-0.32,0.12c-0.1,0.06-0.18,0.13-0.24,0.22s-0.1,0.2-0.1,0.32
		c0,0.1,0.02,0.19,0.05,0.27c0.04,0.07,0.08,0.14,0.15,0.19s0.14,0.1,0.22,0.13s0.18,0.07,0.27,0.1l0.58,0.16
		c0.13,0.04,0.26,0.08,0.38,0.14c0.12,0.05,0.23,0.12,0.33,0.21s0.17,0.19,0.23,0.33c0.06,0.13,0.09,0.29,0.09,0.49
		c0,0.22-0.05,0.42-0.15,0.58s-0.23,0.3-0.39,0.4c-0.16,0.11-0.34,0.18-0.54,0.24c-0.2,0.05-0.39,0.08-0.58,0.08
		c-0.26,0-0.49-0.03-0.71-0.09c-0.22-0.06-0.4-0.15-0.55-0.27c-0.15-0.12-0.26-0.28-0.34-0.46c-0.08-0.19-0.11-0.42-0.09-0.68h0.57
		c-0.01,0.19,0.01,0.35,0.07,0.49c0.05,0.13,0.13,0.24,0.23,0.32s0.23,0.14,0.37,0.17s0.3,0.05,0.47,0.05
		c0.13,0,0.26-0.02,0.39-0.05s0.25-0.08,0.35-0.15c0.1-0.07,0.18-0.15,0.24-0.25c0.06-0.1,0.09-0.23,0.09-0.37
		c0-0.11-0.02-0.2-0.06-0.28c-0.04-0.08-0.1-0.14-0.17-0.2c-0.07-0.05-0.15-0.1-0.24-0.13c-0.09-0.04-0.19-0.07-0.29-0.1l-0.58-0.16
		c-0.13-0.04-0.25-0.08-0.37-0.14c-0.12-0.06-0.22-0.13-0.31-0.22s-0.16-0.19-0.21-0.31c-0.05-0.12-0.08-0.26-0.08-0.42
		c0-0.21,0.05-0.39,0.14-0.54c0.09-0.15,0.21-0.28,0.36-0.39c0.15-0.1,0.31-0.18,0.5-0.23c0.19-0.05,0.38-0.08,0.57-0.08
		c0.21,0,0.41,0.03,0.6,0.08c0.19,0.05,0.36,0.14,0.5,0.25c0.14,0.11,0.26,0.25,0.34,0.42c0.08,0.17,0.12,0.38,0.11,0.62h-0.57
		C18.68,49.47,18.65,49.33,18.61,49.22z"/>
	<path class="st9" d="M22.32,48.38l0.77,4.28h-0.59l-0.2-1.29H20.5l-0.75,1.29h-0.63l2.57-4.28H22.32z M22.24,50.89l-0.32-2.01
		h-0.01l-1.15,2.01H22.24z"/>
	<path class="st9" d="M27.56,48.38c0.53,0,0.93,0.15,1.21,0.44c0.27,0.29,0.41,0.69,0.41,1.2c0,0.4-0.06,0.77-0.17,1.1
		c-0.12,0.33-0.28,0.6-0.49,0.83c-0.21,0.23-0.46,0.41-0.75,0.53c-0.29,0.12-0.62,0.19-0.97,0.19h-1.64l0.91-4.28H27.56z
		 M26.81,52.18c0.3,0,0.57-0.06,0.79-0.18s0.41-0.28,0.56-0.48c0.15-0.2,0.26-0.42,0.34-0.68c0.07-0.25,0.11-0.51,0.11-0.77
		c0-0.16-0.02-0.31-0.05-0.46c-0.03-0.15-0.09-0.28-0.18-0.39c-0.09-0.11-0.21-0.2-0.36-0.27c-0.15-0.07-0.35-0.1-0.58-0.1h-0.91
		l-0.7,3.32H26.81z"/>
	<path class="st9" d="M33.24,48.38l-0.1,0.48h-2.38l-0.29,1.36h2.22l-0.1,0.48h-2.23l-0.31,1.48h2.41l-0.11,0.48h-2.98l0.91-4.28
		H33.24z"/>
	<path class="st9" d="M34.74,48.38l0.57,3.68h0.01l2.12-3.68h0.79l-0.91,4.28h-0.55l0.88-3.75h-0.01l-2.18,3.75h-0.55l-0.56-3.75
		h-0.01l-0.75,3.75h-0.55l0.9-4.28H34.74z"/>
	<path class="st9" d="M41.1,48.38l0.77,4.28h-0.59l-0.2-1.29h-1.81l-0.75,1.29H37.9l2.57-4.28H41.1z M41.02,50.89l-0.32-2.01h-0.01
		l-1.15,2.01H41.02z"/>
	<path class="st9" d="M43.79,48.38l1.53,3.55h0.01l0.71-3.55h0.55l-0.91,4.28h-0.61l-1.52-3.52h-0.01l-0.73,3.52h-0.55l0.91-4.28
		H43.79z"/>
	<path class="st9" d="M49.01,48.38c0.53,0,0.93,0.15,1.21,0.44c0.27,0.29,0.41,0.69,0.41,1.2c0,0.4-0.06,0.77-0.17,1.1
		c-0.12,0.33-0.28,0.6-0.49,0.83c-0.21,0.23-0.46,0.41-0.75,0.53c-0.29,0.12-0.62,0.19-0.97,0.19H46.6l0.91-4.28H49.01z
		 M48.25,52.18c0.3,0,0.57-0.06,0.79-0.18s0.41-0.28,0.56-0.48c0.15-0.2,0.26-0.42,0.34-0.68c0.07-0.25,0.11-0.51,0.11-0.77
		c0-0.16-0.02-0.31-0.05-0.46c-0.03-0.15-0.09-0.28-0.18-0.39c-0.09-0.11-0.21-0.2-0.36-0.27c-0.15-0.07-0.35-0.1-0.58-0.1h-0.91
		l-0.7,3.32H48.25z"/>
	<path class="st9" d="M54.68,48.38l-0.1,0.48h-2.38l-0.29,1.36h2.22l-0.1,0.48h-2.23l-0.31,1.48h2.41l-0.11,0.48h-2.98l0.91-4.28
		H54.68z"/>
</g>
<polygon class="st6" points="57.82,53.04 57.28,53.04 58.82,48.24 59.36,48.24 "/>
<polygon class="st4" points="81.32,160.05 52.69,160.05 61.2,133.12 89.83,133.12 "/>
<polygon class="st5" points="54.99,159.03 54.53,159.03 62.39,134.15 62.86,134.15 "/>
<polygon class="st5" points="80.03,159.03 79.57,159.03 87.44,134.15 87.91,134.15 "/>
<polygon class="st4" points="118.54,160.05 89.91,160.05 98.42,133.12 127.05,133.12 "/>
<polygon class="st5" points="92.21,159.03 91.75,159.03 99.62,134.15 100.08,134.15 "/>
<polygon class="st5" points="117.26,159.03 116.8,159.03 124.66,134.15 125.13,134.15 "/>
<polygon class="st4" points="155.68,160.05 127.05,160.05 135.55,133.12 164.18,133.12 "/>
<polygon class="st4" points="155.28,193.45 135.49,193.45 141.37,174.84 161.16,174.84 "/>
<polygon class="st8" points="130.11,193.45 110.32,193.45 116.2,174.84 135.99,174.84 "/>
<polygon class="st5" points="129.35,159.03 128.89,159.03 136.75,134.15 137.22,134.15 "/>
<polygon class="st5" points="154.39,159.03 153.93,159.03 161.79,134.15 162.26,134.15 "/>
<polygon class="st5" points="158.3,193.67 157.95,193.67 163.93,174.76 164.29,174.76 "/>
<g>
	<g>
		<path class="st10" d="M126.27,178.54h-6.23c-1.44,0-2.62,1.17-2.62,2.62v6.23c0,1.44,1.17,2.62,2.62,2.62h6.23
			c1.44,0,2.62-1.17,2.62-2.62v-6.23C128.89,179.71,127.71,178.54,126.27,178.54z M127.43,187.38c0,0.64-0.52,1.16-1.16,1.16h-6.23
			c-0.64,0-1.16-0.52-1.16-1.16v-6.23c0-0.64,0.52-1.16,1.16-1.16h6.23c0.64,0,1.16,0.52,1.16,1.16V187.38z"/>
		<path class="st10" d="M125.34,181.87c-0.97,1.13-1.93,2.25-2.9,3.38c-0.49-0.52-0.99-1.05-1.48-1.57
			c-0.6-0.64-1.57,0.33-0.97,0.96c0.66,0.7,1.33,1.4,1.99,2.11c0.24,0.25,0.73,0.27,0.97,0c1.12-1.3,2.24-2.61,3.36-3.91
			C126.88,182.17,125.92,181.2,125.34,181.87z"/>
	</g>
</g>
<g>
</g>
<g>
</g>
<g>
</g>
<g>
</g>
<g>
</g>
<g>
</g>
</svg>
