<svg xmlns="http://www.w3.org/2000/svg" viewBox="0 0 16.32 16.31"><defs><style>.cls-1{fill:#ddbf29;}.cls-2{fill:#fff;}</style></defs><title>icon-usages</title><g id="Calque_2" data-name="Calque 2"><g id="Calque_1-2" data-name="Calque 1"><path id="Widget" class="cls-1" d="M7.61,3.74A3.81,3.81,0,1,0,3.74,7.61H7.61V3.74Zm-3.87,5a3.81,3.81,0,1,0,3.87,3.87h0V8.7Zm5-5a3.8,3.8,0,1,1,3.86,3.87H8.7V3.74Zm3.87,5A3.81,3.81,0,1,1,8.7,12.57h0V8.7ZM14.13,12a1.63,1.63,0,0,0-3.26,0h0a2,2,0,0,0,.33,1,1.5,1.5,0,0,1,.09.18c.13.22.28.44.4.68.27.47.55.95.81,1.42.27-.47.52-1,.78-1.41s.38-.57.55-.87a1.65,1.65,0,0,0,.3-1ZM12.5,10.87A1.09,1.09,0,1,1,11.42,12a1.09,1.09,0,0,1,1.08-1.09ZM4.35,3.09V5.81a.93.93,0,0,0,.08.47.51.51,0,0,0,.33.11v.13H2.91V6.39a.44.44,0,0,0,.34-.13.81.81,0,0,0,.08-.45v-2a.73.73,0,0,0-.09-.46.46.46,0,0,0-.33-.12V3.09ZM3.84,1.43a.56.56,0,0,1,.4.17A.55.55,0,0,1,4.4,2a.58.58,0,0,1-.16.4.56.56,0,0,1-.4.17A.57.57,0,0,1,3.27,2h0a.56.56,0,0,1,.17-.4A.54.54,0,0,1,3.84,1.43Zm7.58.2,2.71,2.18L11.42,6V1.63Zm-7.61,8.7A2.18,2.18,0,1,1,1.63,12.5h0A2.17,2.17,0,0,1,3.81,10.33Zm1.07,2.72H3.79a.27.27,0,0,1-.27-.28h0V11.14a.27.27,0,0,1,.27-.27.28.28,0,0,1,.28.27V12.5h.81a.28.28,0,0,1,0,.55Z"/><polygon class="cls-2" points="11.41 1.63 14.13 3.81 11.41 5.98 11.41 1.63 11.41 1.63"/></g></g></svg>