<svg xmlns="http://www.w3.org/2000/svg" viewBox="0 0 11.62 17.95"><defs><style>.cls-1{fill:#a3195b;}</style></defs><title>icon-vieperso</title><g id="Calque_2" data-name="Calque 2"><g id="Calque_1-2" data-name="Calque 1"><path id="Applility" class="cls-1" d="M9.14,7.34a4.86,4.86,0,0,1-6.66,0A4.73,4.73,0,0,0,0,11.4H0v4.44A2.11,2.11,0,0,0,2.11,18h9.51V11.51A4.74,4.74,0,0,0,9.14,7.34ZM7.91,12.92h0L5.82,15.31,3.73,12.92h0a1.1,1.1,0,0,1,.09-1.55,1.09,1.09,0,0,1,1.5,0h0l.32.3.18.18h0L6,11.71l.32-.3h0a1.1,1.1,0,0,1,.78-.32h0a1.09,1.09,0,0,1,.81,1.83ZM9.61,3.8A3.8,3.8,0,1,1,5.81,0,3.8,3.8,0,0,1,9.61,3.8Z"/></g></g></svg>