<svg xmlns="http://www.w3.org/2000/svg" viewBox="0 0 17.83 13.63"><defs><style>.cls-1{fill:#a94090;}</style></defs><title>icon-ps</title><g id="Calque_2" data-name="Calque 2"><g id="Calque_1-2" data-name="Calque 1"><path id="IoT_Software" data-name="IoT Software" class="cls-1" d="M4,11.52h-.9v0a1,1,0,0,0-1-1V9.63A1.87,1.87,0,0,1,4,11.5Zm1.69,0H4.75v0A2.65,2.65,0,0,0,2.1,8.86V8A3.56,3.56,0,0,1,5.66,11.5v0Zm1.68,0H6.43v0A4.24,4.24,0,0,0,5.16,8.45,4.32,4.32,0,0,0,2.1,7.19v-.9A5.23,5.23,0,0,1,7.34,11.5v0ZM16.78,0H1.05A1,1,0,0,0,0,1.05V12.58a1,1,0,0,0,1.05,1.05H16.78a1,1,0,0,0,1-1.05h0V1.05A1,1,0,0,0,16.78,0ZM1.57,1.05a.52.52,0,0,1,.53.52.53.53,0,0,1-.53.53.52.52,0,0,1-.52-.53h0A.52.52,0,0,1,1.57,1.05ZM16.78,12.58H1.05V3.15H16.78Z"/></g></g></svg>