<svg xmlns="http://www.w3.org/2000/svg" viewBox="0 0 18.53 14.18"><defs><style>.cls-1{fill:#936037;}</style></defs><title>icon-bancaires</title><g id="Calque_2" data-name="Calque 2"><g id="Calque_1-2" data-name="Calque 1"><path id="Finance" class="cls-1" d="M3.84,5.49v7.6a1.65,1.65,0,0,0,.28.91,1.07,1.07,0,0,1-.9-.64L.1,6.43A1.07,1.07,0,0,1,.64,5h0L11.55.1A1.08,1.08,0,0,1,13,.64l1.44,3.22H5.48A1.65,1.65,0,0,0,3.84,5.49Zm4.9,6A.55.55,0,0,1,8.2,12H7.11a.55.55,0,1,1,0-1.09H8.2A.54.54,0,0,1,8.74,11.46Zm0,0A.55.55,0,0,1,8.2,12H7.11a.55.55,0,1,1,0-1.09H8.2A.54.54,0,0,1,8.74,11.46Zm4.89-.54a.55.55,0,0,1,.55.54.55.55,0,0,1-.54.55h-1.1a.55.55,0,0,1,0-1.09h1.09Zm-4.89.54A.55.55,0,0,1,8.2,12H7.11a.55.55,0,1,1,0-1.09H8.2A.54.54,0,0,1,8.74,11.46Zm4.89-.54a.55.55,0,0,1,.55.54.55.55,0,0,1-.54.55h-1.1a.55.55,0,0,1,0-1.09h1.09ZM17.44,4.4h-12A1.09,1.09,0,0,0,4.39,5.49h0v7.6a1.09,1.09,0,0,0,1.09,1.09h12a1.09,1.09,0,0,0,1.09-1.09V5.49A1.09,1.09,0,0,0,17.44,4.4Zm0,8.15a.54.54,0,0,1-.54.54H6a.54.54,0,0,1-.54-.54V8.75h12v3.8Zm0-5.43h-12V6A.54.54,0,0,1,6,5.49H16.9a.54.54,0,0,1,.54.54V7.12Zm-8.7,4.34A.55.55,0,0,1,8.2,12H7.11a.55.55,0,1,1,0-1.09H8.2a.54.54,0,0,1,.54.54Zm5.44,0a.55.55,0,0,1-.55.55H12.54a.55.55,0,0,1,0-1.09h1.09a.55.55,0,0,1,.55.54Zm-5.44,0A.55.55,0,0,1,8.2,12H7.11a.55.55,0,1,1,0-1.09H8.2a.54.54,0,0,1,.54.54Zm2.72,0a.55.55,0,0,1-.55.55H9.83a.55.55,0,1,1,0-1.09h1.09a.55.55,0,0,1,.55.54Zm2.72,0a.55.55,0,0,1-.55.55H12.54a.55.55,0,0,1,0-1.09h1.09a.55.55,0,0,1,.55.54Z"/></g></g></svg>