<svg xmlns="http://www.w3.org/2000/svg" viewBox="0 0 14.31 15.25"><defs><style>.cls-1{fill:#f3987f;}</style></defs><title>icon-contact</title><g id="Calque_2" data-name="Calque 2"><g id="Calque_1-2" data-name="Calque 1"><path id="Address_book" data-name="Address book" class="cls-1" d="M12.88,0H1.44V2.38H1A1,1,0,0,0,1,4.29h.48V6.67H1a1,1,0,0,0,0,1.91h.5V11H1a1,1,0,0,0,0,1.91h.48v1a1.43,1.43,0,0,0,1.43,1.42H14.31V1.43A1.43,1.43,0,0,0,12.89,0Zm-5,2.86A1.67,1.67,0,1,1,6.21,4.52,1.66,1.66,0,0,1,7.88,2.86Zm2.62,9.53H6.21a.94.94,0,0,1-1-1h0V9.3h0a2.62,2.62,0,1,1,5.24,0Z"/></g></g></svg>