<svg xmlns="http://www.w3.org/2000/svg" viewBox="0 0 16.31 12.96"><defs><style>.cls-1{fill:#312783;}</style></defs><title>icon-identification</title><g id="Calque_2" data-name="Calque 2"><g id="Calque_1-2" data-name="Calque 1"><path id="Contact_card" data-name="Contact card" class="cls-1" d="M4.55,6.24A1.44,1.44,0,1,0,3.11,4.8h0A1.44,1.44,0,0,0,4.55,6.24ZM14.87,0H0V11.52A1.44,1.44,0,0,0,1.44,13H4.09V12a.71.71,0,0,1-.25-.54.72.72,0,0,1,1.44,0A.78.78,0,0,1,5,12v1h6.23V12a.67.67,0,0,1-.22-.52.72.72,0,1,1,1.43,0,.69.69,0,0,1-.25.52v1h4.09V1.44A1.43,1.43,0,0,0,14.87,0ZM7.68,8.64a.49.49,0,0,1-.48.48H6.72v-.2h0v0a2.16,2.16,0,1,0-4.32,0v0h0v.2H1.92a.48.48,0,0,1-.48-.48V2.88a.47.47,0,0,1,.48-.48H7.2a.48.48,0,0,1,.48.48h0Zm4.79-.48H9.6a.48.48,0,0,1-.48-.48A.47.47,0,0,1,9.6,7.2h2.87a.47.47,0,0,1,.48.48A.48.48,0,0,1,12.47,8.16Zm1.92-2.4H9.6a.48.48,0,0,1-.48-.48A.47.47,0,0,1,9.6,4.8h4.79a.47.47,0,0,1,.48.48A.48.48,0,0,1,14.39,5.76Zm0-2.4H9.6a.48.48,0,0,1-.48-.48A.47.47,0,0,1,9.6,2.4h4.79a.47.47,0,0,1,.48.48A.48.48,0,0,1,14.39,3.36Z"/></g></g></svg>