<svg xmlns="http://www.w3.org/2000/svg" viewBox="0 0 16.68 16.19"><defs><style>.cls-1{fill:#b51544;}</style></defs><title>icon-sante</title><g id="Calque_2" data-name="Calque 2"><g id="Calque_1-2" data-name="Calque 1"><path class="cls-1" d="M6,6.87A.31.31,0,0,1,6.23,7l.42.63,1-3.88A.29.29,0,0,1,8,3.54a.3.3,0,0,1,.22.24L9,8.2l.43-1.51a.29.29,0,0,1,.28-.21h0a.29.29,0,0,1,.28.21l.32,1.17.29-1a.31.31,0,0,1,.37-.2.3.3,0,0,1,.17.16l.35.69L11.82,7a.27.27,0,0,1,.25-.14h4.2A4.91,4.91,0,0,0,8.34,1.4h0A4.91,4.91,0,0,0,.41,6.87Zm10,.59H12.24l-.51.84a.3.3,0,0,1-.4.1.25.25,0,0,1-.11-.12L11,7.76,10.58,9a.28.28,0,0,1-.28.21h0A.29.29,0,0,1,10,9L9.71,7.87,9.21,9.6a.28.28,0,0,1-.28.21h0a.29.29,0,0,1-.27-.24L7.89,5.22l-.83,3.2a.31.31,0,0,1-.36.21.31.31,0,0,1-.17-.13l-.7-1H.71a5.58,5.58,0,0,0,.63.82h0l7,7.91h0l7-7.91h0A4.53,4.53,0,0,0,16,7.46Z"/></g></g></svg>